<svg width="120" height="120" viewBox="0 0 120 120" fill="none" xmlns="http://www.w3.org/2000/svg">
<path fill-rule="evenodd" clip-rule="evenodd" d="M115.074 1.54007C112.539 2.39836 107.28 4.15426 103.388 5.44211C99.4965 6.72966 93.6747 8.68014 90.4511 9.7761C87.2272 10.872 84.4588 11.7688 84.299 11.7688C83.5686 11.7688 83.9675 12.3943 86.354 14.9899C87.7624 16.5213 88.9146 17.8643 88.9146 17.9744C88.9146 18.0842 87.3534 19.912 85.4451 22.0363C83.5369 24.1607 80.9487 27.0492 79.6941 28.4556C73.8558 34.9988 70.3258 38.8496 63.2838 46.3566C61.7549 47.9865 56.982 52.9466 52.6776 57.3794C33.5185 77.1083 29.48 81.3702 23.7307 87.9282C17.7521 94.7481 8.50672 107.718 7.78019 108.708C7.68507 108.838 7.54178 109.064 7.43455 109.198C6.87412 110.066 -0.131073 119.473 0.00186804 119.592C0.0213803 119.61 7.62453 119.708 16.898 119.812L33.7587 120L34.2586 119.107C35.3953 117.076 43.948 103.65 47.5142 98.298C56.2419 85.2005 66.3878 72.5099 86.1273 50.001C92.0197 43.2815 94.0237 40.9192 97.652 36.4146L101.565 31.5573L104.521 35.2612L107.478 38.965L108.372 36.1999C108.864 34.6789 110.587 29.3169 112.201 24.2839C113.816 19.251 116.194 11.863 117.487 7.86627C118.78 3.86949 119.885 0.448162 119.944 0.262992C120.085 -0.177325 120.36 -0.249456 115.074 1.54007ZM13.0116 17.3535C13.0125 17.4647 17.1073 25.125 22.111 34.3768C36.4537 60.8962 38.1339 63.9791 38.3251 64.1273C38.424 64.204 40.8492 61.8285 43.7151 58.8476C46.5805 55.8673 50.7102 51.6051 52.892 49.3762C55.0738 47.1476 56.9914 45.1727 57.1536 44.9882C57.3985 44.7091 56.2539 42.4316 50.3994 31.5468C46.5224 24.3388 43.1743 18.1513 42.9594 17.7965L42.5688 17.1517H27.7891C19.6604 17.1517 13.0106 17.2424 13.0116 17.3535ZM72.9258 73.7368C66.9737 81.2833 59.539 91.0259 59.539 91.2802C59.539 91.3811 62.3602 96.6955 65.8086 103.09C69.2567 109.484 72.7061 115.892 73.474 117.33L74.8702 119.945L91.2272 119.954L107.584 119.964L107.341 119.394C106.885 118.325 100.758 107.404 82.4522 75.0344C80.1553 70.9733 78.1833 67.6114 78.0695 67.5638C77.9559 67.5161 75.6413 70.2942 72.9258 73.7368Z" fill="url(#paint0_linear_13_38)"/>
<defs>
<linearGradient id="paint0_linear_13_38" x1="83.4225" y1="49.1031" x2="-8.20813" y2="98.2385" gradientUnits="userSpaceOnUse">
<stop stop-color="#D946EF"/>
<stop offset="0.59283" stop-color="#4F46E5"/>
<stop offset="1" stop-color="#22D3EE"/>
</linearGradient>
</defs>
</svg>
